# AST/ASF file generated using VICON BodyLanguage
# -----------------------------------------------
:version 1.10
:name VICON
:units
  mass 1.0
  length 0.45
  angle deg
:documentation
   .ast/.asf automatically generated from VICON data using
   VICON BodyBuilder and BodyLanguage model FoxedUp or BRILLIANT.MOD
:root
   order TX TY TZ RX RY RZ
   axis XYZ
   position 0 0 0  
   orientation 0 0 0 
:bonedata
  begin
     id 1 
     name lhipjoint
     direction 0.610259 -0.730986 0.305356 
     length 2.50941 
     axis 0 0 0  XYZ
  end
  begin
     id 2 
     name lfemur
     direction 0.34202 -0.939693 0  
     length 7.48822  
     axis 0 0 20  XYZ
    dof rx ry rz
    limits (-160.0 20.0)
           (-70.0 70.0)
           (-60.0 70.0)
  end
  begin
     id 3 
     name ltibia
     direction 0.34202 -0.939693 0   
     length 7.60141   
     axis 0 0 20   XYZ
    dof rx
    limits (-10.0 170.0)
  end
  begin
     id 4 
     name lfoot
     direction 0.0673488 -0.185039 0.980421   
     length 2.04049   
     axis -90 7.62852e-016 20   XYZ
    dof rx rz
    limits (-45.0 90.0)
           (-70.0 20.0)
  end
  begin
     id 5 
     name ltoes
     direction 1.5356e-011 -4.21729e-011 1   
     length 1.02897   
     axis -90 7.62852e-016 20   XYZ
    dof rx
    limits (-90.0 20.0)
  end
  begin
     id 6 
     name rhipjoint
     direction -0.57612 -0.754205 0.315056   
     length 2.43216  
     axis 0 0 0  XYZ 
  end
  begin
     id 7 
     name rfemur
     direction -0.34202 -0.939693 0   
     length 7.42799   
     axis 0 0 -20   XYZ
    dof rx ry rz
    limits (-160.0 20.0)
           (-70.0 70.0)
           (-70.0 60.0)
  end
  begin
     id 8 
     name rtibia
     direction -0.34202 -0.939693 0   
     length 7.69484   
     axis 0 0 -20   XYZ
    dof rx
    limits (-10.0 170.0)
 end
 begin
     id 9 
     name rfoot
     direction -0.111837 -0.30727 0.945028   
     length 2.15769  
     axis -90 -7.62852e-016 -20   XYZ
    dof rx rz
    limits (-45.0 90.0)
           (-20.0 70.0)
  end
  begin
     id 10 
     name rtoes
     direction -1.53539e-011 -4.21878e-011 1   
     length 1.07391   
     axis -90 -7.62852e-016 -20   XYZ
    dof rx
    limits (-90.0 20.0)
  end
  begin
     id 11 
     name lowerback
     direction 0.00552624 0.990109 -0.140195   
     length 2.12403   
     axis 0 0 0   XYZ
    dof rx ry rz
    limits (-20.0 45.0)
           (-30.0 30.0)
           (-30.0 30.0)
  end
  begin
     id 12 
     name upperback
     direction 0.00361898 0.999976 -0.00584723   
     length 2.13232   
     axis 0 0 0   XYZ
    dof rx ry rz
    limits (-20.0 45.0)
           (-30.0 30.0)
           (-30.0 30.0)
  end
  begin
     id 13 
     name thorax
     direction -0.000331275 0.998253 0.0590847   
     length 2.17688   
     axis 0 0 0   XYZ
    dof rx ry rz
    limits (-20.0 45.0)
           (-30.0 30.0)
           (-30.0 30.0)
  end
  begin
     id 14 
     name lowerneck
     direction -0.0561561 0.979832 0.19177   
     length 1.64159   
     axis 0 0 0   XYZ
    dof rx ry rz
    limits (-20.0 45.0)
           (-30.0 30.0)
           (-30.0 30.0)
  end
  begin
     id 15 
     name upperneck
     direction 0.0827153 0.979385 -0.184293   
     length 1.68939   
     axis 0 0 0   XYZ
    dof rx ry rz
    limits (-20.0 45.0)
           (-30.0 30.0)
           (-30.0 30.0)
  end
  begin
     id 16
     name head
     direction 0.0278583 0.995936 -0.0856488  
     length 1.70207  
     axis 0 0 0   XYZ
    dof rx ry rz
    limits (-20.0 45.0)
           (-30.0 30.0)
           (-30.0 30.0)
  end
  begin
     id 17 
     name lclavicle
     direction 0.950993 0.301131 -0.0702275  
     length 3.41652  
     axis 0 0 0   XYZ
    dof ry rz
    limits (-20.0 10.0)
           (0.0 20.0)
  end
  begin
     id 18 
     name lhumerus
     direction 1 -4.48981e-011 -3.9662e-029   
     length 5.32955   
     axis 180 -30 -90   XYZ
    dof rx ry rz
    limits (-60.0 90.0)
           (-90.0 90.0)
           (-90.0 90.0)
  end
  begin
     id 19
     name lradius
     direction 1 -4.48925e-011 -9.0549e-027   
     length 3.69232   
     axis 180 -30 -90   XYZ
    dof rx
    limits (-10.0 170.0)
  end
  begin
     id 20
     name lwrist
     direction 1 -4.49007e-011 -1.49005e-026   
     length 1.84616   
     axis 9.0955e-015 90 90   XYZ
    dof ry
    limits (-180.0 0.0)
 end
  begin
     id 21 
     name lhand
     direction 1 -4.49016e-011 -2.98023e-026   
     length 0.536598   
     axis 1.90115e-014 90 90   XYZ
    dof rx rz
    limits (-90.0 90.0)
           (-45.0 45.0)
  end
  begin
     id 22 
     name lfingers
     direction 1 -4.48924e-011 -5.9578e-026   
     length 0.432619   
     axis 3.80223e-014 90 90   XYZ
    dof rx
    limits (0.0 90.0)
  end
  begin
     id 23
     name lthumb
     direction 0.707107 -6.34947e-011 0.707107   
     length 0.621157   
     axis -90 45 -3.84942e-014   XYZ
    dof rx rz
    limits (-45.0 45.0)
           (-45.0 45.0)
  end
  begin
     id 24 
     name rclavicle
     direction -0.955495 0.276497 -0.102848   
     length 3.36357  
     axis 0 0 0   XYZ 
    dof ry rz
    limits (-10.0 20.0)
           (-20.0 0.0)
  end
  begin
     id 25 
     name rhumerus
     direction -1 -4.48961e-011 3.30983e-027  
     length 5.23431   
     axis 180 30 90   XYZ
    dof rx ry rz
    limits (-90.0 60.0)
           (-90.0 90.0)
           (-90.0 90.0)
  end
  begin
     id 26 
     name rradius
     direction -1 -4.48965e-011 -6.63263e-027   
     length 3.55301   
     axis 180 30 90   XYZ
    dof rx
    limits (-10.0 170.0)
  end
  begin
     id 27 
     name rwrist
     direction -1 -4.48942e-011 -1.48958e-026   
     length 1.77651   
     axis 9.0955e-015 -90 -90   XYZ
    dof ry
    limits (-180.0 0.0)
  end
  begin
     id 28
     name rhand
     direction -1 -4.48977e-011 -2.97966e-026   
     length 0.772522   
     axis 1.90115e-014 -90 -90   XYZ
    dof rx rz
    limits (-90.0 90.0)
           (-45.0 45.0)
  end
  begin
     id 29
     name rfingers
     direction -1 -4.49135e-011 -5.96389e-026   
     length 0.622827   
     axis 3.80223e-014 -90 -90   XYZ
    dof rx
    limits (0.0 90.0)
  end
  begin
     id 30
     name rthumb
     direction -0.707107 -6.34969e-011 0.707107   
     length 0.894259   
     axis -90 -45 3.84942e-014   XYZ
    dof rx rz
    limits (-45.0 45.0)
           (-45.0 45.0)
  end
:hierarchy
  begin
    root lhipjoint rhipjoint lowerback
    lhipjoint lfemur
    lfemur ltibia
    ltibia lfoot
    lfoot ltoes
    rhipjoint rfemur
    rfemur rtibia
    rtibia rfoot
    rfoot rtoes
    lowerback upperback
    upperback thorax
    thorax lowerneck lclavicle rclavicle
    lowerneck upperneck
    upperneck head
    lclavicle lhumerus
    lhumerus lradius
    lradius lwrist
    lwrist lhand lthumb
    lhand lfingers
    rclavicle rhumerus
    rhumerus rradius
    rradius rwrist
    rwrist rhand rthumb
    rhand rfingers
  end

#!OML:ASF F:\VICON\USERDATA\INSTALL\rory3\rory3.ASF
:FULLY-SPECIFIED
:DEGREES
17
root 14.9542 17.9794 -11.1302 1.50319 -51.1109 -1.63326
lowerback 11.7679 2.18482 1.46208
upperback 1.53839 3.08334 0.60935
thorax -4.93621 1.48244 -0.670636
lowerneck -19.9037 -4.06239 -11.3891
upperneck 26.246 -4.71588 8.60771
head 12.5001 -2.18329 4.43806
rclavicle -6.85807e-015 -2.5842e-015
rhumerus -35.0837 -15.2476 -80.3266
rradius 28.7364
rwrist 12.2522
rhand -11.0372 10.0431
rfingers 7.12502
rthumb 14.9846 -19.3948
lclavicle -6.85807e-015 -2.5842e-015
lhumerus -37.2668 8.21607 82.0747
lradius 34.5231
lwrist -6.52638
lhand -16.1372 25.824
lfingers 7.12502
lthumb 10.0678 55.5632
rfemur 1.13575 -0.262189 27.9411
rtibia 21.1167
rfoot -18.8704 -0.463996
rtoes 14.8864
lfemur -24.381 -1.06247 -19.0165
ltibia 24.5647
lfoot -11.6859 3.7808
ltoes -10.1856
18
root 14.9117 17.9787 -11.1066 1.84684 -51.3227 -1.72501
lowerback 11.5623 2.2876 1.36612
upperback 1.48348 3.20592 0.603971
thorax -4.88244 1.54583 -0.633893
lowerneck -19.8859 -4.06999 -11.2496
upperneck 26.153 -4.74524 8.52865
head 12.4568 -2.19073 4.37463
rclavicle 1.19519e-014 -1.33186e-014
rhumerus -35.0905 -14.8599 -80.4493
rradius 28.8077
rwrist 12.1387
rhand -11.1204 9.99414
rfingers 7.12502
rthumb 14.9045 -19.4497
lclavicle 1.19519e-014 -1.33186e-014
lhumerus -37.479 8.58243 81.846
lradius 34.4536
lwrist -7.13751
lhand -15.8681 26.5161
lfingers 7.12502
lthumb 10.3274 56.2425
rfemur 1.14745 -0.0371106 28.0299
rtibia 20.8621
rfoot -18.8531 -0.472667
rtoes 14.8456
lfemur -24.687 -0.996787 -18.918
ltibia 23.0729
lfoot -11.624 3.57048
ltoes -11.4336
19
root 14.8695 17.977 -11.0759 2.12631 -51.4377 -1.92508
lowerback 11.5371 2.31782 1.42138
upperback 1.38953 3.25597 0.613219
thorax -4.96365 1.56881 -0.664324
lowerneck -19.801 -4.00467 -11.091
upperneck 26.1727 -4.67583 8.39261
head 12.4302 -2.16373 4.30617
rclavicle -5.14107e-014 -1.25234e-014
rhumerus -35.2477 -14.4129 -80.5612
rradius 28.9029
rwrist 11.9448
rhand -11.2472 9.95731
rfingers 7.12502
rthumb 14.7823 -19.4955
lclavicle -5.14107e-014 -1.25234e-014
lhumerus -37.7815 9.02237 81.5588
lradius 34.2421
lwrist -7.87101
lhand -15.4735 26.6052
lfingers 7.12502
lthumb 10.708 56.3124
rfemur 1.31022 0.147907 28.1796
rtibia 20.6631
rfoot -18.8856 -0.46673
rtoes 15.1414
lfemur -24.8102 -0.912427 -18.7935
ltibia 21.6222
lfoot -11.5656 3.30982
ltoes -12.6694
20
root 14.8311 17.9712 -11.044 2.45567 -51.4685 -2.21578
lowerback 11.4826 2.3194 1.65455
upperback 1.37096 3.28755 0.628369
thorax -4.94004 1.58033 -0.781852
lowerneck -19.8112 -3.97842 -11.1881
upperneck 26.2309 -4.63677 8.48732
head 12.4559 -2.14505 4.36884
rclavicle 1.20911e-013 4.77083e-015
rhumerus -35.2207 -14.3648 -80.526
rradius 28.8739
rwrist 12.0996
rhand -11.165 9.96183
rfingers 7.12502
rthumb 14.8615 -19.4852
lclavicle 1.20911e-013 4.77083e-015
lhumerus -37.9064 9.25653 81.4171
lradius 33.9214
lwrist -8.2289
lhand -15.5203 26.0725
lfingers 7.12502
lthumb 10.6629 55.7819
rfemur 1.49215 0.304804 28.3991
rtibia 20.4419
rfoot -18.9015 -0.499535
rtoes 15.595
lfemur -24.9743 -0.992682 -18.5543
ltibia 20.2741
lfoot -11.551 3.04544
ltoes -12.9879
21
root 14.7945 17.9616 -11.0094 2.28517 -51.1071 -2.18065
lowerback 11.6408 2.21892 1.80798
upperback 1.45878 3.17234 0.605229
thorax -4.92844 1.52013 -0.878936
lowerneck -19.8055 -4.00426 -11.4814
upperneck 26.2928 -4.66721 8.77389
head 12.4994 -2.15322 4.52977
rclavicle 8.17502e-015 9.74045e-015
rhumerus -35.1165 -14.2957 -80.4761
rradius 28.8394
rwrist 12.1016
rhand -11.1746 10.1272
rfingers 7.12502
rthumb 14.8523 -19.3204
lclavicle 8.17502e-015 9.74045e-015
lhumerus -37.9818 9.32535 81.3963
lradius 33.6023
lwrist -8.07428
lhand -16.1605 25.176
lfingers 7.12502
lthumb 10.0454 54.9162
rfemur 1.93864 0.0817975 28.4212
rtibia 20.1887
rfoot -18.8999 -0.699592
rtoes 15.5226
lfemur -24.9286 -1.51519 -18.5195
ltibia 19.0597
lfoot -11.465 2.90167
ltoes -12.6543
22
root 14.753 17.9548 -10.9768 2.29562 -50.998 -2.24575
lowerback 11.7027 2.19014 1.83341
upperback 1.49175 3.14018 0.658417
thorax -4.93069 1.50395 -0.83463
lowerneck -19.8552 -3.96734 -11.4569
upperneck 26.445 -4.55158 8.53209
head 12.5492 -2.13185 4.45479
rclavicle 4.65902e-014 -6.95746e-015
rhumerus -35.0684 -14.0113 -80.3917
rradius 28.8378
rwrist 12.0564
rhand -11.2261 10.1679
rfingers 7.12502
rthumb 14.8027 -19.2835
lclavicle 4.65902e-014 -6.95746e-015
lhumerus -38.1518 9.68561 81.3159
lradius 33.289
lwrist -8.22874
lhand -16.0976 24.77
lfingers 7.12502
lthumb 10.106 54.5073
rfemur 2.29591 -0.0531859 28.4848
rtibia 19.9273
rfoot -18.8841 -0.751768
rtoes 15.4311
lfemur -24.9344 -1.76951 -18.4215
ltibia 17.9497
lfoot -11.3663 2.92712
ltoes -12.9343
23
root 14.7101 17.9486 -10.9426 2.36481 -50.9751 -2.37248
lowerback 11.7764 2.17589 1.91948
upperback 1.51521 3.13306 0.663589
thorax -4.94274 1.49843 -0.878925
lowerneck -19.8753 -3.93104 -11.1797
upperneck 26.4531 -4.46788 8.13297
head 12.5284 -2.11685 4.26364
rclavicle 8.21975e-014 -4.57205e-015
rhumerus -34.9925 -14.0433 -80.294
rradius 28.7532
rwrist 12.2922
rhand -11.1811 10.1877
rfingers 7.12502
rthumb 14.8461 -19.2605
lclavicle 8.21975e-014 -4.57205e-015
lhumerus -38.3358 10.0362 81.1001
lradius 33.0483
lwrist -8.60635
lhand -15.4466 25.1903
lfingers 7.12502
lthumb 10.734 54.8961
rfemur 2.68539 -0.0759145 28.5861
rtibia 19.6059
rfoot -18.8948 -0.803379
rtoes 15.5408
lfemur -24.954 -1.80487 -18.3465
ltibia 16.9927
lfoot -11.3287 3.03054
ltoes -14.1443
24
root 14.6646 17.9458 -10.9076 2.41057 -50.9739 -2.43508
lowerback 11.8139 2.21693 1.95819
upperback 1.55041 3.18978 0.623649
thorax -4.92061 1.52554 -0.951719
lowerneck -19.8561 -3.94292 -11.0673
upperneck 26.3701 -4.52669 8.15512
head 12.4955 -2.12722 4.2404
rclavicle 6.35365e-014 1.27222e-014
rhumerus -34.8783 -14.4822 -80.1426
rradius 28.5992
rwrist 12.5455
rhand -11.0855 10.3026
rfingers 7.12502
rthumb 14.9382 -19.1387
lclavicle 6.35365e-014 1.27222e-014
lhumerus -38.462 10.0696 80.9894
lradius 32.8757
lwrist -8.60652
lhand -15.2505 25.6268
lfingers 7.12502
lthumb 10.9232 55.3226
rfemur 3.09302 0.0204029 28.66
rtibia 19.2145
rfoot -18.8979 -0.93809
rtoes 15.5314
lfemur -25.0412 -1.84592 -18.3164
ltibia 16.2287
lfoot -11.3476 3.28155
ltoes -14.4859
25
root 14.6204 17.945 -10.8722 2.64859 -50.9499 -2.65963
lowerback 11.8973 2.1999 1.90188
upperback 1.47317 3.17168 0.760773
thorax -5.05963 1.51653 -0.780154
lowerneck -20.2562 -3.81424 -10.5905
upperneck 26.8998 -4.28539 7.48714
head 12.7321 -2.05943 3.95251
rclavicle 2.79541e-014 -2.14687e-014
rhumerus -34.932 -14.2835 -79.9782
rradius 28.5993
rwrist 12.3919
rhand -11.0951 10.2656
rfingers 7.12502
rthumb 14.9289 -19.1764
lclavicle 2.79541e-014 -2.14687e-014
lhumerus -38.7491 10.4597 80.9282
lradius 32.6017
lwrist -8.81146
lhand -15.0715 25.9121
lfingers 7.12502
lthumb 11.0958 55.5987
rfemur 3.43391 0.0122038 28.8092
rtibia 18.7734
rfoot -18.8533 -0.890093
rtoes 15.9194
lfemur -25.2724 -1.93893 -18.1417
ltibia 15.651
lfoot -11.3842 3.51925
ltoes -14.1941
26
root 14.5753 17.9426 -10.8375 2.69435 -50.9596 -2.73252
lowerback 11.9724 2.19701 1.88538
upperback 1.49267 3.1671 0.77169
thorax -5.08243 1.51413 -0.761569
lowerneck -20.086 -3.8832 -11.0358
upperneck 26.7155 -4.40167 8.00804
head 12.6615 -2.08947 4.20952
rclavicle -5.02428e-014 5.1684e-015
rhumerus -34.9103 -14.0411 -80.0193
rradius 28.666
rwrist 12.2435
rhand -11.2561 10.0675
rfingers 7.12502
rthumb 14.7738 -19.3859
lclavicle -5.02428e-014 5.1684e-015
lhumerus -38.819 10.5968 80.7958
lradius 32.2098
lwrist -9.02901
lhand -14.8562 25.8819
lfingers 7.12502
lthumb 11.3035 55.5573
rfemur 3.87552 0.00353801 28.8519
rtibia 18.3115
rfoot -18.7861 -0.789573
rtoes 16.6191
lfemur -25.4151 -1.98122 -18.0805
ltibia 15.2042
lfoot -11.4387 3.75328
ltoes -13.4356
27
root 14.5275 17.9365 -10.8001 2.67614 -50.9269 -2.81575
lowerback 12.0446 2.1896 1.98495
upperback 1.56263 3.16669 0.726407
thorax -5.04083 1.51194 -0.865805
lowerneck -20.051 -3.87016 -10.7596
upperneck 26.655 -4.37062 7.66406
head 12.6103 -2.09094 4.02939
rclavicle 1.12239e-013 -1.74931e-014
rhumerus -34.7674 -14.1069 -80.0435
rradius 28.5903
rwrist 12.2909
rhand -11.4883 9.91811
rfingers 7.12502
rthumb 14.55 -19.5516
lclavicle 1.12239e-013 -1.74931e-014
lhumerus -38.8748 10.7735 80.5622
lradius 31.8629
lwrist -9.10438
lhand -14.8871 25.7148
lfingers 7.12502
lthumb 11.2737 55.3918
rfemur 4.402 0.0415993 28.9356
rtibia 17.879
rfoot -18.7814 -0.824821
rtoes 16.732
lfemur -25.4674 -1.72907 -18.1505
ltibia 14.8136
lfoot -11.499 3.83001
ltoes -13.1781
28
root 14.4793 17.9302 -10.7603 2.7597 -50.83 -2.89627
lowerback 12.0132 2.18539 2.02756
upperback 1.59776 3.16513 0.736591
thorax -4.98476 1.51129 -0.876462
lowerneck -20.0449 -3.84852 -10.5697
upperneck 26.6678 -4.31976 7.38724
head 12.5966 -2.08483 3.8968
rclavicle -4.11236e-014 7.35503e-015
rhumerus -34.6601 -14.3415 -79.8911
rradius 28.527
rwrist 12.4874
rhand -11.5729 10.0269
rfingers 7.12502
rthumb 14.4685 -19.4487
lclavicle -4.11236e-014 7.35503e-015
lhumerus -38.9629 11.1697 80.3426
lradius 31.569
lwrist -9.02964
lhand -14.4964 25.5774
lfingers 7.12502
lthumb 11.6504 55.2335
rfemur 4.80579 0.0367372 29.0247
rtibia 17.4553
rfoot -18.7212 -0.967374
rtoes 15.8782
lfemur -25.6437 -1.74753 -18.1373
ltibia 14.5128
lfoot -11.5529 4.04405
ltoes -13.261
29
root 14.431 17.923 -10.7179 2.8147 -50.7689 -2.84669
lowerback 11.9222 2.18972 1.97743
upperback 1.60806 3.16082 0.712161
thorax -4.92498 1.51106 -0.868931
lowerneck -20.0701 -3.83687 -10.6376
upperneck 26.752 -4.31661 7.49823
head 12.6396 -2.07723 3.95526
rclavicle -4.39563e-014 -1.70955e-014
rhumerus -34.6442 -14.4153 -79.7945
rradius 28.5817
rwrist 12.5911
rhand -11.411 10.1373
rfingers 7.12502
rthumb 14.6245 -19.327
lclavicle -4.39563e-014 -1.70955e-014
lhumerus -39.0823 11.5284 80.1673
lradius 31.2779
lwrist -9.00146
lhand -14.2505 25.3771
lfingers 7.12502
lthumb 11.8875 55.0196
rfemur 5.16255 -0.113733 28.9702
rtibia 16.9833
rfoot -18.5952 -0.931724
rtoes 15.5033
lfemur -25.9018 -2.01085 -18.1121
ltibia 14.3633
lfoot -11.6124 4.37939
ltoes -13.319
30
root 14.3793 17.9188 -10.676 2.9056 -50.7686 -2.86955
lowerback 11.84 2.22048 1.98618
upperback 1.64332 3.1966 0.653456
thorax -4.83751 1.52958 -0.935973
lowerneck -20.1766 -3.85995 -10.5798
upperneck 26.8155 -4.37652 7.54703
head 12.6933 -2.09028 3.95625
rclavicle 2.93207e-014 1.19271e-015
rhumerus -34.601 -14.5133 -79.8031
rradius 28.6142
rwrist 12.5545
rhand -11.525 10.0947
rfingers 7.12502
rthumb 14.5147 -19.3775
lclavicle 2.93207e-014 1.19271e-015
lhumerus -39.075 11.5574 80.0654
lradius 30.8972
lwrist -9.0566
lhand -14.6237 25.6459
lfingers 7.12502
lthumb 11.5277 55.3089
rfemur 5.52278 -0.207151 28.9785
rtibia 16.5715
rfoot -18.5507 -0.938563
rtoes 15.5179
lfemur -26.0285 -1.96015 -18.1446
ltibia 14.1867
lfoot -11.7263 4.47028
ltoes -14.5257
31
root 14.3262 17.9169 -10.6363 2.99574 -50.759 -2.97392
lowerback 11.8634 2.23007 1.95409
upperback 1.66714 3.20587 0.674363
thorax -4.82822 1.53489 -0.898043
lowerneck -20.1883 -3.86956 -10.6116
upperneck 26.7935 -4.39756 7.61501
head 12.6917 -2.09329 3.98431
rclavicle 7.93151e-014 -1.39149e-014
rhumerus -34.5661 -14.3195 -79.8415
rradius 28.7164
rwrist 12.2283
rhand -11.7967 9.83943
rfingers 7.12502
rthumb 14.2529 -19.6515
lclavicle 7.93151e-014 -1.39149e-014
lhumerus -39.0993 11.7077 79.9498
lradius 30.543
lwrist -9.14827
lhand -14.8629 26.6463
lfingers 7.12502
lthumb 11.297 56.322
rfemur 5.91505 -0.190213 29.0836
rtibia 16.2565
rfoot -18.4922 -1.06984
rtoes 14.378
lfemur -26.034 -1.80002 -18.1506
ltibia 13.9462
lfoot -11.8691 4.27539
ltoes -15.684
